<?xml version="1.0" encoding="UTF-8"?>
<svg id="Capa_2" data-name="Capa 2" xmlns="http://www.w3.org/2000/svg" viewBox="0 0 111.38 146.67">
  <defs>
    <style>
      .cls-1 {
        fill: none;
        stroke: #1d1d1b;
        stroke-linejoin: bevel;
      }
    </style>
  </defs>
  <g id="svg108">
    <g>
      <path id="path52" class="cls-1" d="m51.35,138.78c-.48-.48-.92-1-1.3-1.57-.26-.38-.49-.77-.7-1.17-.08-.15-.15-.31-.2-.47-.07-.21-.14-.42-.19-.63-.21-.76-.28-1.56-.22-2.35.07-.83.27-1.64.59-2.41.42-1.01,1.04-1.92,1.82-2.68.27-.26.56-.51.87-.72.27-.18.54-.35.82-.51.18-.1.37-.19.56-.28l.7-.3h.08s.02,0,.03,0c.06-.03.13-.06.2-.08.29-.08.57-.15.87-.2.43-.07.86-.1,1.29-.07.31.02.63.06.93.14.48.12.94.31,1.35.58.31.2.58.44.83.72.26.3.49.62.68.97.05.1.1.2.15.31.05.11.09.21.13.32.2.51.27,1.07.19,1.62-.05.35-.15.7-.29,1.02-.18.41-.42.79-.72,1.12-.05.06-.1.12-.16.17-.02.06-.04.12-.08.17-.03.05-.08.09-.12.12l-.06.03-.08.03-.11.02-.13-.02-.12-.07-.07-.09-.03-.08s-.02-.08-.03-.12c0-.05,0-.09,0-.13,0-.02,0-.04,0-.07-.02-.15-.04-.3-.05-.45,0-.15-.02-.3-.04-.44-.02-.17-.05-.34-.1-.5-.05-.14-.11-.28-.19-.4-.26-.4-.64-.7-1.09-.85-.26-.09-.53-.13-.8-.14-.24,0-.48.02-.72.06-.3.06-.59.18-.85.35-.27.18-.51.39-.71.65-.28.35-.5.74-.65,1.17-.04.1-.07.2-.1.31-.17.61-.18,1.26-.04,1.88.05.2.12.4.22.58.04.08.09.16.14.24.09.15.2.28.32.4.15.16.32.31.49.44.14.11.28.21.43.32.17.11.34.21.51.3.47.25.99.42,1.52.5.38.06.77.06,1.15,0,.24-.04.48-.1.71-.2.66-.25,1.27-.59,1.82-1.03.43-.34.83-.73,1.19-1.15.3-.36.58-.74.83-1.14.19-.32.37-.65.52-.99.19-.42.34-.87.46-1.32.05-.2.1-.41.13-.62.13-.74.13-1.49,0-2.22-.12-.76-.39-1.48-.8-2.13-.17-.28-.36-.54-.58-.78-.13-.16-.27-.32-.42-.47-.08-.09-.17-.17-.26-.25-.66-.59-1.37-1.12-2.12-1.58-.39-.23-.79-.45-1.2-.65-.49-.24-.99-.44-1.51-.6-.41-.13-.83-.23-1.25-.3-.35-.06-.7-.09-1.06-.1-.35-.01-.71.01-1.06.06-.59.09-1.18.22-1.75.41-.43.14-.85.31-1.26.49-.14.06-.27.12-.41.19-.6.33-1.18.7-1.72,1.12-.46.36-.9.75-1.3,1.17-.52.55-.99,1.14-1.39,1.78-.22.36-.43.72-.61,1.1-.1.21-.2.42-.3.64-.12.27-.22.54-.31.82-.24.72-.42,1.46-.55,2.2-.26,1.59-.25,3.2.03,4.78.11.63.26,1.26.45,1.87,2.22.54,4.47.91,6.74,1.12h.05s0,0,0,0Z"/>
      <path id="path54" class="cls-1" d="m16.63,106.6c.28.3.57.58.87.85.47.41.97.78,1.51,1.1.52.31,1.08.58,1.65.79.45.17.91.28,1.38.35.12.02.23.03.35.03.22.01.44.01.66,0,.43-.03.85-.11,1.26-.25.18-.06.36-.13.54-.21.14-.07.28-.13.43-.2.18-.09.36-.19.53-.29.52-.33.99-.72,1.42-1.16.3-.32.58-.65.84-1.01h-5.97c-.24.03-.49.05-.73.04-.22,0-.44-.02-.66-.04h-4.06Zm17.13,0c-.05.1-.09.19-.14.29-.45.92-.99,1.79-1.6,2.61-.47.63-1,1.22-1.56,1.77-.3.29-.62.56-.95.81-.33.25-.68.48-1.04.68-.07.04-.13.07-.2.11-.08.05-.15.1-.24.14-.08.04-.17.08-.26.12-.11.05-.23.1-.34.15l1.03.76c.48.36.96.73,1.42,1.11.47.38.92.78,1.36,1.21.33.32.65.66.96,1.02.57.66,1.06,1.39,1.48,2.15.15.27.29.55.4.83.04.1.08.21.12.31,0,.05.02.1.04.15.03.06.05.12.08.18.02.05.04.1.06.16.12.41.22.82.3,1.24.07.35.11.71.14,1.07.02.33.02.66,0,.98-.04.48-.14.96-.28,1.42-.14.42-.33.83-.57,1.2-.22.35-.49.67-.8.94-.17.15-.36.29-.56.41-.12.08-.24.15-.36.21-.08.04-.17.08-.26.12-.57.22-1.18.33-1.79.34-.3,0-.6-.02-.9-.07-.38-.07-.75-.18-1.1-.33-.41-.18-.79-.4-1.15-.67-.31-.24-.59-.51-.83-.83-.05-.07-.1-.13-.14-.2-.09-.15-.16-.3-.23-.46-.07-.17-.14-.33-.22-.5v-.1s0-.03,0-.04c-.01-.05-.03-.11-.04-.16-.12-.77,0-1.56.35-2.26.16-.34.37-.65.61-.93.1-.11.21-.22.32-.32.1-.09.21-.18.32-.26.23-.17.48-.31.74-.41.39-.16.8-.24,1.22-.24.13,0,.26.01.38.03-.08-.19-.18-.37-.28-.55-.18-.3-.37-.59-.59-.87-.15-.19-.29-.39-.45-.57-.36-.44-.79-.81-1.27-1.11-.63-.39-1.26-.77-1.9-1.14-.86-.49-1.72-.98-2.59-1.47l-.65-.37c-.22-.12-.43-.24-.65-.36-.44-.23-.89-.47-1.33-.71-.22-.12-.44-.25-.66-.38-1.38-.82-2.75-1.66-4.1-2.53-.54-.34-1.06-.73-1.54-1.15-.54-.47-1.04-1-1.48-1.57-.49-.63-.94-1.28-1.35-1.96h-.24c.14.42.29.83.45,1.25.63,1.68,1.35,3.32,2.16,4.91.49.1.95.28,1.39.53.16.09.32.19.47.29.23.16.45.32.66.5.16.14.32.28.46.43.25.26.47.54.65.85.13.22.23.46.31.71l.07.24h0s0,.01,0,.01c.13.53.18,1.08.14,1.62-.02.39-.09.77-.21,1.14-.01.03-.02.07-.03.1,1.79,2.48,3.82,4.79,6.06,6.88,1.72,1.6,3.55,3.08,5.48,4.41.25.17.5.34.75.5.2-.09.41-.18.61-.27h.08s.03,0,.04-.01c.05-.02.1-.05.15-.07.05-.02.11-.05.16-.06.36-.1.72-.19,1.08-.26.47-.1.95-.16,1.43-.19.75-.04,1.51.04,2.24.22.54.14,1.06.34,1.56.59.31.16.61.33.91.52.36.23.72.48,1.06.75.22.17.44.35.66.53,0-.23.01-.47.03-.7l.02-.52c.02-.23.04-.47.08-.7.04-.27.09-.54.14-.8.04-.24.08-.47.12-.71.07-.4.18-.8.32-1.19.15-.43.33-.86.54-1.27.2-.41.41-.81.62-1.21.21-.39.42-.79.61-1.19.17-.35.32-.72.45-1.09.13-.38.25-.76.37-1.14.1-.32.19-.64.28-.97.09-.32.16-.64.21-.96.03-.21.06-.43.07-.64.02-.28.02-.56.01-.84-.01-.49-.09-.98-.24-1.45-.02-.06-.04-.12-.06-.18-.11.3-.27.59-.47.85-.29.39-.67.72-1.09.95-.06.05-.13.09-.2.13l-.11.05c-.1.05-.21.09-.31.14-.04.02-.09.04-.13.06l-.24.13-.05-.05c-.39.11-.79.16-1.2.16-.35,0-.7-.06-1.04-.17-.22-.07-.44-.17-.64-.28-.11-.07-.22-.14-.33-.21-.09-.06-.18-.13-.27-.2-.04-.04-.09-.08-.13-.12-.16-.15-.3-.32-.44-.49-.2-.25-.35-.53-.46-.83-.15-.43-.23-.88-.23-1.34,0-.42.07-.84.19-1.25.17-.54.43-1.05.78-1.5.42-.56.95-1.02,1.56-1.36.14-.09.29-.18.44-.24.15-.07.3-.13.45-.2.07-.03.14-.06.2-.09l.3-.15.05.06c.31-.08.63-.14.95-.17.52-.05,1.05-.01,1.57.1.35.08.69.18,1.03.32.45.18.89.41,1.29.69.37.25.7.55.99.89.2.24.38.5.53.78.06.1.12.2.17.3.08.16.15.32.23.49l.23.54v.07s0,.02,0,.03c.03.06.05.13.07.2.07.28.15.57.22.85.05.22.1.44.14.66.01.07.02.15.03.23l.09.76c.03.26.05.53.06.79,0,.09,0,.18,0,.26.14-.09.29-.17.43-.25.17-.09.34-.19.51-.29.19-.12.37-.25.54-.4.21-.18.4-.39.58-.6.22-.26.42-.54.61-.83.13-.2.26-.4.37-.61.39-.71.65-1.48.77-2.28.05-.33.07-.66.07-.99,0-.24-.02-.47-.04-.7-.03-.31-.09-.61-.18-.9-.11-.38-.26-.75-.44-1.1-.25-.5-.56-.97-.92-1.4-.33-.39-.68-.76-1.06-1.1l-.11-.1c-.12-.1-.24-.2-.37-.3-.11-.09-.21-.18-.31-.28-.04-.04-.08-.09-.12-.13l-.1-.13h-4.84c-.48.26-.85.51-1.11.77-.23.23-.47.33-.71.31-.24-.02-.47-.13-.68-.31-.21-.19-.38-.43-.53-.73l-.02-.04h-5.59Zm16.4,0c.38.12.74.28,1.08.48.15.08.29.17.43.25.48.31.92.68,1.31,1.11.35.39.66.81.93,1.26.08.13.15.26.22.4.05.08.1.17.15.26.05.09.09.18.13.27.08.2.17.39.26.59v.09s0,.03.01.04c.03.05.05.11.08.16.01.03.02.06.03.08.06.24.13.48.2.72.06.21.11.42.16.62.05.22.08.44.1.66.13.96.13,1.94,0,2.91.66.04,1.32.13,1.97.28,1.18.26,2.33.67,3.41,1.22.66.33,1.29.71,1.9,1.13,1.22.84,2.32,1.85,3.26,3,.11.14.22.28.33.42v-.02s-.11-.2-.11-.2l.02-.06s-.02-.04-.03-.06l-.02-.06c-.07-.28-.11-.57-.13-.86-.02-.4.01-.79.09-1.18.1-.49.26-.97.49-1.41.36-.74.88-1.41,1.51-1.95.28-.24.57-.45.89-.62.05-.04.11-.07.17-.1.06-.03.12-.06.19-.09.14-.06.28-.12.42-.18h.08s0,0,0,0l.08-.04s.09-.04.14-.05c.23-.06.47-.1.7-.15.23-.04.47-.07.7-.08-.07-.19-.13-.38-.18-.58-.21-.76-.3-1.54-.27-2.33.03-.52.1-1.04.24-1.55.09-.37.22-.74.37-1.09-.38.23-.79.41-1.22.55-.48.16-.98.26-1.48.31-.23.03-.46.03-.69.02-.39-.02-.78-.08-1.17-.16-.48-.1-.95-.27-1.4-.49-.38-.19-.74-.44-1.06-.73-.21-.2-.4-.41-.57-.64-.2-.26-.36-.53-.5-.82-.21-.43-.37-.88-.48-1.34h-12.73Z"/>
      <path id="path56" class="cls-1" d="m67.21,124.28c.1.18.19.36.28.54.18.37.36.75.53,1.13.23.5.45,1.01.68,1.51.22.5.45,1,.7,1.48.24.48.5.96.78,1.42.43.7.98,1.32,1.61,1.85.19.15.38.29.59.42.27.17.55.31.84.44.31.14.64.24.98.31.11.02.22.04.34.05.44.05.89.07,1.33.07.26,0,.53-.01.79-.03.23-.02.46-.04.69-.06.36-.04.72-.09,1.08-.15,5.16-2.77,9.76-6.46,13.57-10.89,1.89-2.2,3.58-4.56,5.04-7.06l.09-.16c-.72-.32-1.42-.69-2.1-1.1-.1-.06-.2-.12-.3-.18-.05.55-.15,1.1-.31,1.63-.18.61-.43,1.2-.75,1.75-.2.35-.43.68-.67,1-.11.15-.23.3-.35.44-.24.29-.47.57-.72.85-.13.16-.27.32-.4.47-.83.94-1.82,1.72-2.94,2.3-.35.19-.71.36-1.08.5-.08.03-.17.06-.26.09-.13.05-.25.09-.38.14-.11.04-.22.07-.33.1-.22.06-.45.12-.67.18-.23.06-.47.11-.71.15-.56.1-1.12.15-1.68.15-.63,0-1.26-.03-1.89-.13-.27-.04-.54-.1-.8-.16-.2-.05-.39-.1-.59-.15-.41-.11-.81-.25-1.2-.42-.38-.17-.76-.35-1.12-.55-.21-.11-.41-.23-.61-.35l-.91-.53c-.3-.17-.6-.34-.91-.5-.24-.12-.48-.24-.73-.34-.47-.2-.96-.33-1.46-.39-.19-.02-.38-.03-.58-.02-.33.01-.66.1-.97.24-.21.1-.39.26-.5.47-.08.15-.13.31-.16.48-.05.36-.01.73.13,1.06.18.42.47.77.85,1.02.11.09.24.15.38.19.11.03.22.06.34.08.1.01.2.03.3.03.13.01.27.02.4.02.21,0,.42.01.63.02.15,0,.3.02.44.04.04,0,.08,0,.12,0,.08,0,.16-.01.24-.01.08,0,.15,0,.22.02.1.03.2.08.27.16.04.04.07.1.09.15l.13.41-.46.06s-.05,0-.07.01h-.01c-.19.09-.39.17-.59.24-.26.09-.52.18-.78.27-.19.07-.38.14-.57.21-.44.16-.89.28-1.35.36-.42.08-.85.11-1.27.1-.44-.01-.87-.08-1.29-.2-.63-.19-1.21-.51-1.71-.94-.11-.1-.22-.2-.32-.3h0Z"/>
      <path id="path58" class="cls-1" d="m47.84,75.19c-.19-.13-.39-.23-.61-.28-.18-.05-.37-.08-.55-.09-.2-.01-.41-.01-.61,0-.12,0-.24.01-.37.03-.43.06-.84.22-1.2.47-.31.21-.57.48-.79.78-.12.17-.23.35-.33.54-.1.19-.2.37-.31.55-.07.12-.14.25-.21.37-.07.14-.12.28-.17.42-.08.26-.15.52-.19.78-.02.14-.04.29-.06.43h2.05c0-.23.04-.46.09-.69.08-.36.2-.71.36-1.04.08-.16.16-.31.25-.46.11-.17.24-.33.38-.48.17-.18.36-.34.56-.48.22-.16.46-.31.7-.43.02-.02.04-.03.07-.05.12-.08.25-.14.38-.19.09-.04.18-.07.27-.1l.28-.1h0Zm13.45,4.01c.31-.84.57-1.7.75-2.58.2-.93.34-1.88.43-2.83.08-.94.11-1.89.09-2.84-.03-1.71-.22-3.42-.55-5.1-.09-.43-.18-.85-.27-1.27-.12-.53-.23-1.07-.34-1.6-.06-.32-.12-.65-.18-.97-.12-.71-.23-1.43-.33-2.15-.12-.82-.2-1.65-.27-2.48-.04-.53-.06-1.07-.07-1.61,0-.28,0-.57,0-.85-.4.35-.82.68-1.25.98-.5.35-1.03.67-1.57.96-.24.14-.49.27-.74.39-.34.16-.67.31-1.02.45-.49.21-.99.4-1.5.56-.29.1-.58.19-.87.28-.61.18-1.23.33-1.86.45-.95.17-1.91.24-2.87.21-.49-.02-.97-.06-1.45-.13-.51-.08-1.01-.2-1.5-.35-.27-.08-.53-.17-.8-.27-.38-.14-.77-.28-1.15-.43-.32-.12-.64-.23-.97-.33-.39-.12-.78-.23-1.17-.32-.32-.07-.65-.12-.97-.15-.29-.03-.58-.03-.87-.02-.37.02-.74.08-1.1.18-.11.04-.22.08-.33.14-.15.08-.3.17-.44.28-.11.08-.21.18-.3.28-.17.18-.32.38-.45.59-.08.13-.14.27-.19.41-.03.1-.06.21-.07.31.08-.15.18-.29.28-.42.2-.25.44-.48.71-.66.25-.15.51-.29.77-.4.39-.16.8-.27,1.22-.32.52-.06,1.04,0,1.53.18.52.19.99.51,1.36.92.18.21.34.43.48.67.09.15.17.31.24.48.16.41.25.84.26,1.28,0,.35-.02.69-.1,1.03-.06.3-.16.58-.28.86-.1.21-.21.41-.34.61-.35.53-.81.97-1.35,1.3-.18.11-.36.2-.56.29-.2.09-.4.17-.61.25h-.06s-.02,0-.03.01c-.08.03-.16.06-.24.08-.08.02-.16.04-.25.04-.65.11-1.32.08-1.96-.08-.19-.05-.38-.11-.56-.18-.14-.05-.28-.1-.41-.16-.53-.23-1.02-.52-1.47-.88-.55-.44-1.04-.97-1.44-1.55-.08-.12-.16-.24-.24-.37-.16.69-.37,1.37-.64,2.02-.42,1.02-.95,1.98-1.57,2.89-.78,1.11-1.69,2.13-2.71,3.01-.81.7-1.7,1.32-2.63,1.85-.27.15-.54.3-.82.44-.25.13-.5.24-.75.34-.12.05-.25.09-.37.14-.18.08-.36.14-.54.2-.56.19-1.14.35-1.71.47-.46.1-.93.17-1.4.21-.31.02-.62.04-.93.04-.43.01-.85,0-1.28-.05-.91-.09-1.8-.29-2.66-.6-.64-.23-1.27-.51-1.87-.84-.33-.18-.66-.38-.97-.59-.21-.14-.42-.28-.62-.42-.13-.09-.26-.19-.38-.29-.15.32-.29.64-.43.97-.71,1.65-1.33,3.34-1.85,5.06-.07.23-.14.45-.2.68.59.3,1.15.66,1.66,1.08.09.07.18.15.26.23h26.36c.11-.66.27-1.31.47-1.95.11-.34.23-.67.36-1,.08-.21.17-.43.26-.64.06-.13.12-.26.18-.39.14-.27.29-.54.44-.8.21-.36.45-.69.71-1.01.27-.33.57-.64.9-.92.49-.42,1.01-.78,1.57-1.09.28-.15.56-.3.85-.43.18-.08.36-.16.54-.22.05-.02.11-.04.16-.06.07-.04.15-.07.23-.09.1-.03.2-.06.3-.1.1-.04.19-.08.29-.11.4-.15.8-.28,1.2-.41l1.23-.37c.4-.12.8-.26,1.2-.4.27-.1.53-.21.8-.33.36-.17.7-.37,1.03-.6.35-.25.67-.55.94-.88.12-.15.23-.31.32-.47.12-.21.22-.44.28-.68.04-.16.08-.33.11-.5.04-.23.08-.47.11-.71.03-.19.06-.37.09-.56l.15-.72.47.41c.08.08.16.17.22.27.07.11.13.23.19.34.04.08.08.16.13.24.03.06.07.11.11.16.1.14.19.29.27.45.06.12.13.24.2.35.05.07.09.15.14.23.07.12.13.25.18.38.05.12.1.23.16.35l.15.3-.04.05c.13.38.21.77.24,1.17.05.72-.09,1.44-.42,2.09-.12.24-.26.46-.42.67-.29.38-.62.71-1,1-.24.19-.5.36-.76.51-.06.04-.13.08-.19.12-.12.06-.23.11-.35.16.27.28.54.57.8.86.19.21.36.44.53.67.15.2.28.42.4.64.02.05.05.09.08.13.07.11.13.22.18.34.04.09.08.18.12.28l.2.47v.08s0,.01,0,.02c.03.06.05.13.07.19.07.25.12.51.16.77.04.26.06.52.06.78,0,.33,0,.66-.03.98h6.73Z"/>
      <path id="path60" class="cls-1" d="m47.59,43.91c.45.2.87.46,1.24.79.29.26.55.55.76.88.04.07.08.14.12.21.05.07.09.14.13.21.04.07.07.15.11.23l.09.21s.04.09.07.14l.15.27-.06.05c.06.19.1.39.14.59.04.24.05.49.04.73-.01.24-.04.47-.08.7-.06.34-.17.66-.33.97-.14.28-.3.54-.5.77-.13.16-.28.31-.44.44-.15.13-.32.24-.5.33-.07.05-.14.09-.22.13-.11.06-.23.11-.35.16-.08.03-.16.07-.24.11l-.24.13-.04-.03h0s-.06.02-.06.02c-.48.09-.97.17-1.46.21-.34.03-.69.06-1.03.09l-1.37.1h0s.27-.54.27-.54c.04-.07.09-.14.15-.2l.07-.05.07-.04c.06-.03.11-.05.17-.07l.07-.02s.02,0,.03-.01l.06-.1.19-.07c.08-.03.17-.07.25-.11.17-.09.34-.18.51-.28.15-.08.31-.16.47-.22l.06-.06.07-.04s.07-.03.1-.05c.21-.11.37-.28.46-.49.11-.25.12-.53.05-.79-.06-.22-.18-.43-.35-.59-.28-.27-.63-.45-1.01-.5-.13-.02-.25-.03-.38-.03-.06,0-.12,0-.18.01-.15.02-.29.05-.44.09-.17.04-.33.12-.47.22-.25.17-.47.38-.66.62-.14.17-.26.36-.36.56-.32.65-.36,1.4-.11,2.07.06.16.13.31.22.45.15.24.33.46.52.67.23.25.48.49.74.7.14.12.29.24.44.36.37.29.78.53,1.21.71.27.11.54.2.83.26,1.09.23,2.2.3,3.31.19.92-.09,1.83-.29,2.71-.6.43-.15.85-.32,1.27-.5.31-.13.61-.27.91-.42.1-.07.2-.13.31-.18.11-.05.21-.1.32-.14.08-.03.15-.07.22-.11.04-.02.07-.04.11-.06.23-.12.45-.25.67-.4.31-.2.62-.4.92-.61.49-.33.95-.69,1.39-1.08.12-.11.24-.22.35-.33.27-.27.54-.54.81-.81.16-.16.31-.33.46-.5.4-.45.79-.9,1.18-1.36.39-.46.78-.92,1.18-1.38.35-.4.7-.8,1.07-1.18.33-.35.67-.7,1.02-1.04-1.51-.34-3.02-.63-4.55-.87-4.06-.39-8.15-.25-12.17.41-.15.02-.3.05-.45.08h0Z"/>
      <path id="path62" class="cls-1" d="m24.02,55.22c.06.1.11.21.16.32.12.27.24.55.34.83.06.18.12.36.18.53.13.42.21.85.24,1.28.02.23.03.47.03.7,0,.31-.01.62-.04.93-.01.15-.02.31-.04.46l-.08.79-.18.05-.4-.53c-.06-.08-.12-.17-.18-.26-.07-.11-.14-.23-.2-.35l-.19-.34c-.06-.11-.12-.22-.19-.32-.18-.29-.36-.58-.54-.87-.14-.21-.28-.42-.44-.62-.18-.23-.36-.45-.56-.66-2.65,2.65-4.99,5.6-6.95,8.79-.24.4-.48.79-.71,1.2.75.72,1.63,1.3,2.6,1.68,1.15.45,2.39.62,3.62.49.46-.04.91-.12,1.35-.23.29-.07.58-.17.86-.29.11-.03.21-.07.31-.11.16-.07.31-.14.46-.22.13-.06.26-.12.4-.18h0s.05-.06.05-.06c.03-.03.06-.05.1-.07l.07-.03.11-.03c.82-.48,1.56-1.07,2.21-1.76.52-.54.97-1.14,1.36-1.78.62-1,1.08-2.09,1.38-3.23.13-.51.22-1.02.27-1.54.04-.54.04-1.08,0-1.61-.05-.65-.16-1.29-.31-1.92-.12-.47-.26-.92-.45-1.37-.06-.16-.12-.31-.18-.46-.07-.16-.14-.31-.21-.47-.11-.24-.23-.47-.34-.71-.02-.05-.05-.11-.07-.16l-.03-.03-.05-.06c-.03-.06-.06-.12-.08-.18-.06-.13-.13-.26-.2-.38-1.2.87-2.35,1.8-3.46,2.78h0Z"/>
      <path id="path64" class="cls-1" d="m31.25,49.96c.4.61.76,1.23,1.09,1.88.12.22.24.45.34.68.07.15.14.31.21.47.1.24.2.47.3.71.03.1.06.2.1.3.05.11.09.22.13.34.13.37.24.75.36,1.13.1.34.19.69.26,1.04.22-.33.47-.63.76-.9.47-.45.99-.83,1.57-1.12.25-.16.51-.28.79-.36.33-.13.66-.23,1.01-.31.24-.05.49-.1.74-.13.07,0,.14-.02.2-.02-.07-.15-.14-.3-.2-.45-.04-.09-.07-.18-.1-.27-.07-.21-.13-.42-.19-.64-.08-.33-.14-.66-.17-.99-.04-.43-.05-.87-.03-1.3.02-.29.04-.58.07-.87.03-.35.09-.71.17-1.05.09-.39.23-.76.4-1.12.14-.29.3-.57.48-.83.04-.05.08-.11.11-.16-2.82,1.01-5.53,2.27-8.11,3.78-.1.06-.2.12-.3.18h0Z"/>
      <path id="path66" class="cls-1" d="m85.01,106.6c.44.34.84.72,1.2,1.13.16.18.31.38.45.57.18.26.35.53.51.8.17.29.31.6.43.91.05.14.1.29.14.43.05.18.1.36.15.55.16.65.22,1.32.2,1.98-.02.44-.1.87-.22,1.29-.17.58-.45,1.12-.81,1.59-.39.5-.86.93-1.4,1.26-.12.07-.25.14-.38.2-.13.06-.25.12-.38.17l-.38.17c-.15.07-.3.14-.45.21h-.09s-.07,0-.1.02c-.39.08-.79.11-1.18.09-.41-.03-.82-.12-1.2-.29-.37-.16-.71-.37-1.01-.64-.25-.23-.46-.5-.62-.8-.04-.06-.08-.12-.11-.18-.11-.2-.19-.41-.26-.63-.02-.07-.04-.14-.06-.21-.04-.11-.08-.23-.11-.35-.02-.06-.04-.13-.05-.2,0-.05-.02-.09-.02-.14l-.02-.18.09-.13.04-.05.05-.04.06-.03.06-.02h.06c.06-.02.11-.01.17,0,.03,0,.05.01.08.02.19.04.38.07.57.1.21.03.43.05.64.06.19.01.38.01.58,0,.16,0,.32-.02.47-.05.33-.06.65-.2.92-.39.3-.22.51-.54.59-.9.05-.23.06-.46.03-.69-.05-.41-.22-.8-.47-1.13-.07-.09-.15-.17-.23-.25-.12-.11-.23-.22-.35-.33-.09-.08-.18-.16-.28-.24-.09-.07-.19-.13-.3-.18-.15-.08-.31-.15-.47-.22-.28-.12-.58-.2-.89-.25-.08-.01-.15-.02-.23-.03-.14-.03-.27-.05-.41-.05-.17,0-.35,0-.52,0-.33.02-.66.06-.99.14-.25.06-.5.12-.74.2-.3.09-.58.25-.82.45-.29.24-.53.54-.71.87-.12.23-.22.48-.29.73-.09.34-.14.7-.15,1.06,0,.62.11,1.24.34,1.82.16.39.36.76.59,1.11.4.59.89,1.12,1.45,1.57.33.26.67.5,1.04.71.2.12.4.23.6.33.47.24.96.41,1.48.51.35.07.7.11,1.05.12.43.01.85-.01,1.27-.07.31-.04.62-.1.92-.17.27-.07.53-.15.79-.25.25-.09.5-.2.74-.31.21-.09.41-.2.61-.32.14-.08.28-.17.42-.25.03-.02.06-.04.09-.06.4-.27.77-.59,1.1-.95.47-.51.84-1.1,1.1-1.75.13-.32.23-.64.3-.98.12-.55.2-1.11.22-1.67.03-.57.01-1.14-.03-1.7-.03-.42-.08-.83-.15-1.24-.1-.65-.22-1.29-.36-1.94-.07-.32-.14-.63-.22-.95h-4.11Zm9.75-27.4c.09-.12.18-.23.27-.35.24-.32.46-.65.67-.99.25-.41.47-.84.65-1.28.16-.39.27-.8.33-1.22.05-.32.06-.65.03-.98-.03-.32-.11-.63-.23-.93-.03-.07-.06-.14-.09-.2-.06.03-.12.06-.18.08-.3.1-.6.21-.89.33-.27.1-.53.2-.8.29-.35.12-.71.18-1.07.2-.33.01-.66-.02-.97-.11-.46-.13-.88-.39-1.2-.75-.2-.22-.37-.47-.49-.74-.04-.09-.08-.18-.12-.27-.05-.13-.1-.26-.15-.4l.03-.02v-.02c-.08-.28-.11-.56-.11-.84,0-.19,0-.38.02-.57.02-.21.05-.41.11-.61.05-.17.12-.33.22-.48.2-.32.44-.61.72-.85.21-.19.43-.35.67-.49.3-.18.62-.33.96-.45.33-.11.67-.19,1.01-.23.5-.06,1-.05,1.49.03.38.06.76.15,1.12.29.26.09.51.2.76.33.08.04.16.09.24.14-.67-1.23-1.39-2.43-2.17-3.59-.17.12-.35.22-.53.33-.13.08-.26.15-.39.21l-.14.06c-.19.09-.39.17-.59.25h-.08s-.02,0-.03,0c-.04.02-.08.04-.13.06-.04.02-.09.04-.14.05-.46.13-.93.23-1.41.28-.61.07-1.23.07-1.84,0-.57-.07-1.14-.2-1.68-.4-.5-.18-.97-.42-1.41-.71-.62-.4-1.16-.89-1.61-1.47-.25-.32-.46-.66-.63-1.03-.12-.26-.24-.52-.33-.79-.04-.1-.07-.2-.09-.31-.07-.26-.12-.52-.15-.78-.07-.53-.06-1.06.03-1.59.04-.21.08-.41.14-.62.03-.13.07-.26.12-.38.23-.62.58-1.19,1.01-1.69.32-.37.71-.7,1.13-.95.09-.06.19-.11.28-.16-2.18-1.88-4.53-3.57-7.01-5.03-.07.2-.15.4-.25.59-.24.43-.57.8-.96,1.09-.22.17-.46.31-.72.42l-.08.04.15.21c.11.15.19.31.26.48.05.14.11.27.17.4.02.04.04.08.06.12l.1.18v.04s.03.07.05.11c.03.11.07.22.12.33.07.16.13.32.19.48.03.1.06.19.08.29.09.36.14.73.14,1.1,0,.32-.02.64-.09.96-.03.14-.07.27-.11.41-.03.09-.07.18-.1.26-.07.16-.15.32-.24.48-.15.26-.32.51-.52.74-.24.27-.5.51-.78.72-.23.17-.47.33-.73.46-.2.11-.41.21-.62.3-.17.07-.34.14-.51.22h-.08s-.03,0-.05.02c-.1.04-.21.08-.32.11-.51.14-1.02.23-1.55.25-.57.03-1.13,0-1.69-.08-.37-.05-.74-.12-1.1-.2-.3-.07-.6-.16-.9-.27-.57-.2-1.11-.46-1.62-.78-.47-.29-.91-.64-1.31-1.03-.33-.33-.63-.68-.91-1.06-.26-.35-.49-.72-.7-1.09-.07-.14-.14-.28-.2-.42-.09-.2-.18-.41-.27-.61v-.08s0-.03-.02-.05l-.05-.1s-.04-.09-.05-.14c-.06-.2-.12-.41-.18-.61-.02.27-.04.54-.05.81-.03.37-.05.73-.06,1.1-.04,1.3.05,2.6.29,3.89.06.32.13.63.2.94.05.23.11.46.16.69.13.52.29,1.04.47,1.55.22.62.48,1.22.76,1.82.22.47.45.92.7,1.37.18.31.37.62.57.92.12.18.23.35.36.52.72,1.03,1.57,1.96,2.54,2.77.61.51,1.27.96,1.97,1.35.38.21.77.4,1.17.57.52.23,1.06.43,1.6.6.56.17,1.13.3,1.71.39.35.05.71.09,1.06.09.47.01.94-.02,1.4-.11.77-.15,1.5-.49,2.1-.99.48-.4.86-.9,1.11-1.47.19-.41.32-.84.38-1.28.04-.3.06-.61.05-.92-.02-.28-.06-.55-.12-.82-.05-.21-.11-.42-.19-.62-.18-.44-.47-.83-.83-1.14-.22-.19-.46-.35-.73-.47-.23-.1-.46-.16-.71-.19-.12-.01-.24-.01-.36,0-.2.02-.38.07-.56.17-.17.09-.32.2-.45.33-.21.21-.37.46-.49.74-.12.27-.18.57-.18.86,0,.07,0,.13.01.19,0,.13.03.25.06.37.02.08.05.16.09.24.13.25.31.47.52.64.18.14.37.26.57.36.12.06.25.11.37.16.2.08.4.15.6.22l1.02.33-.25.39c-.05.07-.11.13-.17.19-.09.07-.18.13-.29.18l-.25.12c-.06.03-.11.06-.16.1-.02.02-.05.04-.07.07-.16.07-.31.14-.46.22-.13.06-.27.12-.4.16-.09.03-.18.05-.28.08-.12.03-.24.06-.36.09-.41.08-.84.08-1.25,0-.72-.15-1.37-.52-1.86-1.08-.18-.2-.33-.42-.45-.66-.05-.07-.1-.14-.13-.22l-.06-.12c-.05-.11-.1-.23-.15-.34-.02-.05-.04-.1-.07-.14l-.12-.22.04-.05h0c-.16-.51-.24-1.03-.24-1.56,0-.53.06-1.06.2-1.57.11-.4.27-.79.48-1.15.14-.24.3-.47.47-.69.25-.31.53-.6.84-.85.23-.19.48-.35.74-.48.07-.05.14-.09.21-.12.07-.04.15-.07.23-.11.16-.07.33-.14.49-.21h.09s.03,0,.04-.01c.06-.03.11-.06.17-.08.03-.01.06-.02.09-.03.42-.1.85-.17,1.28-.2.33-.02.66-.02.98.01,1.01.1,1.99.41,2.87.92.92.54,1.7,1.29,2.28,2.19.03.05.07.11.1.17.05.06.09.13.12.2.04.09.09.19.12.28.02.04.03.07.05.11,0,.02.02.03.03.05l.06.08.03.1s.03.08.04.11c.11.24.2.49.27.74.13.44.21.9.25,1.36.06.68.04,1.36-.06,2.03-.11.75-.31,1.48-.59,2.17-.11.27-.24.53-.37.79-.13.26-.28.51-.44.75-.31.47-.67.9-1.07,1.3-.26.26-.53.49-.82.71-.23.17-.47.32-.72.46-.24.14-.49.26-.74.37-.15.06-.3.12-.45.18-.14.05-.28.1-.42.14-.32.09-.64.18-.97.26-.85.2-1.71.33-2.58.37-.62.03-1.24.02-1.86-.04-.14-.01-.29-.04-.43-.06-.61-.13-1.21-.3-1.8-.5-.67-.22-1.33-.48-1.98-.76-.75-.32-1.48-.69-2.18-1.12-.6-.36-1.17-.77-1.7-1.21-.4-.33-.78-.69-1.13-1.07-.05-.05-.09-.1-.13-.15,0,.35,0,.71-.04,1.06,0,.09-.02.17-.02.26-.06.6-.14,1.2-.21,1.8-.07.5-.15,1-.24,1.5-.09.45-.19.9-.31,1.34-.05.17-.1.34-.15.5h28.86Z"/>
      <path id="path68" class="cls-1" d="m77.56,52.15s-.03,0-.05.01c-.09.04-.19.07-.29.1-.61.16-1.24.21-1.86.16-.45-.04-.88-.15-1.29-.32-.42-.18-.81-.42-1.17-.71-.3-.24-.56-.52-.79-.83-.18-.25-.35-.51-.5-.77-.12-.21-.22-.44-.31-.67-.23-.59-.39-1.21-.47-1.84-.05-.39-.07-.78-.06-1.17,0-.06,0-.11,0-.17l-.93-.29c-.07-.02-.13-.04-.2-.06-.08.1-.16.2-.24.31-.06.08-.11.17-.17.25-.08.12-.16.25-.23.37-.33.55-.59,1.13-.77,1.74-.15.47-.25.96-.3,1.45-.02.23-.03.46-.02.69.02.24.05.48.11.72.06.25.13.5.2.74.05.17.11.33.16.49.1.28.22.55.37.8.25.45.56.86.92,1.23.43.45.91.85,1.43,1.19.36.24.75.44,1.15.61.37.15.77.22,1.18.21.83-.02,1.64-.22,2.38-.58.25-.12.49-.27.71-.44.18-.13.34-.29.48-.47.11-.14.2-.29.27-.45.08-.2.13-.42.13-.64,0-.4.04-.79.09-1.18.02-.17.04-.33.07-.49h0Z"/>
      <path id="path70" class="cls-1" d="m93.81,106.6l.06.12c.21.38.43.74.68,1.08.38.52.8,1,1.26,1.44.47.44.97.84,1.5,1.19.56.38,1.14.71,1.75.99.18-.38.35-.76.52-1.14.53-1.21,1.01-2.43,1.43-3.68h-7.22Z"/>
      <path id="path72" class="cls-1" d="m90.89,58.59c-.28-.1-.58-.1-.86,0-.27.1-.5.28-.64.53-.06.1-.1.2-.13.3-.02.08-.04.17-.04.25,0,.12,0,.24,0,.36,0,.08.03.17.07.24.03.06.05.12.08.17.03.06.06.11.08.17.07.1.16.2.26.28.07.06.14.12.22.18.14.09.3.15.46.19.26.05.52.06.78.03.21-.03.42-.07.63-.14.34-.11.67-.25.97-.43-.6-.73-1.22-1.45-1.87-2.14h0Z"/>
      <path id="path74" class="cls-1" d="m95.79,72.31c-.11-.14-.24-.26-.38-.37-.09-.06-.17-.12-.26-.17-.07-.04-.14-.08-.21-.12-.07-.03-.14-.06-.21-.07-.02,0-.04,0-.07,0-.03,0-.06.01-.09.02h-.08s-.08,0-.12-.02l-.11-.03c-.08.09-.15.19-.21.3-.03.05-.05.1-.06.15,0,.02,0,.05,0,.08,0,.02.02.03.03.04.05.04.1.06.16.08.06.02.12.04.18.05.16.03.32.05.48.06.23.01.45.01.68,0,.09,0,.18,0,.27-.01h0Z"/>
      <path id="path76" class="cls-1" d="m100.95,75.37c-.09.78-.25,1.54-.48,2.29.26-.08.53-.15.8-.21.11-.02.22-.04.33-.06l-.04-.15c-.19-.63-.39-1.25-.61-1.87Z"/>
      <path id="path78" class="cls-1" d="m64.61,138.16c1.69-.32,3.37-.73,5.02-1.24.23-.07.47-.14.7-.22-.6-.37-1.16-.81-1.67-1.31-.26-.26-.51-.53-.75-.81-.21-.25-.4-.5-.59-.76-.09.27-.2.54-.32.8-.16.35-.33.69-.51,1.03-.46.84-1.02,1.61-1.67,2.31-.06.07-.13.14-.2.21h0Z"/>
      <path id="path80" class="cls-1" d="m53.45,19.78c0,.44.18.86.49,1.17.31.31.74.48,1.18.47.44,0,.86-.18,1.17-.49.31-.31.48-.74.47-1.18,0-.44-.18-.86-.49-1.17-.31-.31-.74-.48-1.17-.48-.44,0-.86.18-1.17.5-.31.31-.48.73-.47,1.17Z"/>
      <path id="path82" class="cls-1" d="m80.2,8.61c1.44-3.55-.08-6.3-3.64-4.98-5.33,1.98-9.48,6.26-11.32,11.63,5.6-.43,10.89-2.79,14.96-6.66Z"/>
      <path id="path84" class="cls-1" d="m67.68,37.29c-1.9-.59-3.84-1.04-5.81-1.34l-.18-.03c-1.75-2.05-2.79-4.62-3.58-7.2l8.87,7.42.69,1.15Z"/>
      <path id="path86" class="cls-1" d="m42.8,37.5c1.89-.62,3.83-1.1,5.79-1.44l.18-.03c1.72-2.08,2.71-4.66,3.46-7.26l-8.75,7.57-.67,1.16Z"/>
      <path id="path88" class="cls-1" d="m29.8,9.03c-1.5-3.53-.02-6.3,3.56-5.04,5.36,1.89,9.59,6.09,11.51,11.44-5.61-.34-10.93-2.6-15.07-6.41Z"/>
      <path id="path90" class="cls-1" d="m55.05,15.03l-2.8.96c-3.55-4.55-7.98-9.58-12.68-12.85-1.97-1.37-4.74-2.24-7.39-2.26"/>
      <path id="path92" class="cls-1" d="m31.85.89c-3.04.07-5.86,1.28-7.1,4.2-2.07,4.39.1,9.17-.01,13.57-.13,5.2-5.16,10.52-1.2,15.57,2.85,3.07,6.75,5.6,11.04,5.73C14.46,48.29.38,68.17.5,91.27"/>
      <path id="path94" class="cls-1" d="m.5,91.57c.33,30.42,25.22,54.85,55.65,54.6,30.48-.26,54.98-25.18,54.73-55.66-.2-23.17-14.64-42.88-34.94-50.9,4.28-.2,8.14-2.8,10.94-5.91,3.88-5.12-1.25-10.35-1.46-15.55-.18-4.4,1.9-9.21-.24-13.57-1.28-2.89-4.13-4.07-7.17-4.08"/>
      <path id="path96" class="cls-1" d="m77.67.5c-2.65.06-5.4.98-7.35,2.39-4.64,3.35-8.99,8.45-12.46,13.06l-2.81-.91"/>
    </g>
  </g>
</svg>