<?xml version="1.0" encoding="UTF-8"?>
<svg id="Capa_2" data-name="Capa 2" xmlns="http://www.w3.org/2000/svg" viewBox="0 0 111.38 138.06">
  <defs>
    <style>
      .cls-1 {
        fill: none;
        stroke: #1d1d1b;
      }
    </style>
  </defs>
  <g id="svg108">
    <path id="path106" class="cls-1" d="m57.05,13.52l-.99.09c-.62-4.29-.96-8.4-4.41-12.6-2.37-.81-5.06-.6-7.55.27-6.01,2.11-10.93,8.09-7.66,12.96-11.37,9.69-6.53,15.47-5.49,17.19.45.34.91.65,1.37.93C13.52,41.16.5,60.24.5,82.36c0,30.48,24.71,55.19,55.19,55.19s55.19-24.71,55.19-55.19c0-21.43-12.21-40-30.05-49.15.64-.45,1.21-.94,1.68-1.47,3.33-3.76,1.44-11.62-6.21-16.42,2.7-4.69.18-10.38-7.29-11.65-5.2-3.64-7.21-1.44-9.4,1.48-1.48,2.56-2.06,5.45-2.57,8.37h0ZM13,90.57l-.03.15s0,0,0,0c.03.09,0,.09.07.19.03.05.08.12.11.17l.9,1.33s.1.12.08.18l-.45,1.13c-.06.15-.12.31-.18.46-.06.15-.14.32-.09.47.04.12.15.24.34.25.1,0,.32-.07.42-.1.27-.08.55-.16.81-.23.09-.02.76-.23.8-.22l1.3,1.07c.09.07.24.22.35.25.17.05.32-.02.4-.12.1-.12.09-.32.09-.48,0-.15.01-.32.02-.48.01-.33.03-.66.04-.99,0-.04,0-.22.02-.25.01-.03.72-.47.84-.54l.68-.43c.32-.21.15-.11.3-.27l.03-.13c-.05-.14.01-.26-.33-.39-.18-.07-1.74-.63-1.77-.66l-.15-.58c-.05-.19-.1-.38-.15-.57-.04-.19-.1-.39-.15-.58-.05-.2-.08-.4-.33-.45-.25-.05-.36.12-.49.29l-.55.7c-.09.11-.53.68-.55.69-.04.02-1.61-.1-1.88-.11-.12,0-.18-.01-.28.03-.06.03-.1.06-.14.13l-.04.05s0,0,0,0h0Zm16.45,11.76l.03.15s0,0,0,0c-.03.09,0,.09-.07.19-.03.05-.08.12-.11.17l-.9,1.33s-.1.12-.08.18l.45,1.13c.06.15.12.31.18.46.06.15.14.32.09.47-.04.12-.15.24-.34.25-.1,0-.32-.07-.42-.1-.27-.08-.55-.16-.81-.23-.09-.02-.76-.23-.8-.22l-1.3,1.07c-.08.07-.24.22-.35.25-.17.05-.32-.02-.4-.12-.1-.12-.09-.32-.09-.48,0-.15-.01-.32-.02-.48-.01-.33-.03-.66-.04-.98,0-.04,0-.22-.02-.25-.01-.03-.72-.47-.84-.54l-.68-.43c-.32-.21-.15-.11-.3-.27l-.03-.13c.05-.14-.01-.26.33-.39.18-.07,1.74-.63,1.77-.66l.15-.58c.05-.19.1-.38.15-.57.04-.19.1-.39.15-.58.05-.2.08-.4.33-.45.25-.05.36.12.49.29l.55.7c.09.11.53.68.55.69.04.02,1.61-.1,1.88-.11.12,0,.18-.01.28.03.06.03.1.06.14.13l.04.05s0,0,0,0h0Zm-15.41-29.26l.03.15s0,0,0,0c-.03.09,0,.09-.07.19-.03.05-.08.12-.11.17l-.9,1.33s-.1.12-.08.18l.45,1.13c.06.15.12.31.18.46.06.15.14.32.09.47-.04.12-.15.24-.34.25-.1,0-.32-.07-.42-.1-.27-.08-.55-.16-.81-.23-.09-.02-.76-.23-.8-.22l-1.3,1.07c-.08.07-.24.22-.35.25-.17.05-.32-.02-.4-.12-.1-.12-.09-.32-.09-.48,0-.15-.01-.32-.02-.48-.01-.33-.03-.66-.04-.98,0-.04,0-.22-.02-.25-.01-.03-.72-.47-.84-.54l-.68-.43c-.32-.21-.15-.11-.3-.27l-.03-.13c.05-.14-.01-.26.33-.39.18-.07,1.74-.63,1.77-.66l.15-.58c.05-.19.1-.38.15-.57.04-.19.1-.39.15-.58.05-.2.08-.4.33-.45.25-.05.36.12.49.29l.55.7c.09.11.52.68.55.69.04.02,1.61-.1,1.88-.11.12,0,.18-.01.28.03.06.03.1.06.14.13l.04.05s0,0,0,0h0Zm9.15,42.85l-.03.15s0,0,0,0c.03.09,0,.09.07.19.03.05.08.12.11.17l.9,1.33s.1.12.08.18l-.45,1.13c-.06.15-.12.31-.18.46-.06.15-.14.32-.09.47.04.12.15.24.34.25.1,0,.32-.07.42-.1.27-.08.55-.16.81-.23.09-.02.76-.23.8-.22l1.3,1.07c.09.07.24.22.35.25.17.05.32-.02.4-.12.1-.12.09-.32.09-.48,0-.15.01-.32.02-.48.01-.33.03-.66.04-.99,0-.04,0-.22.02-.25.01-.03.72-.47.84-.54l.68-.43c.32-.21.15-.11.3-.27l.03-.13c-.05-.14.01-.26-.33-.39-.18-.07-1.74-.63-1.77-.66l-.15-.58c-.05-.19-.1-.38-.15-.57-.04-.19-.1-.39-.15-.58-.05-.2-.08-.4-.33-.45-.25-.05-.36.12-.49.29l-.55.7c-.09.11-.53.68-.55.69-.04.02-1.61-.1-1.88-.11-.12,0-.18-.01-.28.03-.06.03-.1.06-.14.13l-.04.05s0,0,0,0h0Zm12.79,9.48c.15-.21.27-.55.54-1.08.08.02.19,0,.22.06l.91.25c1.14.22.32.12,1.3.07,1.95-.09.39-.23,2.26.25,2.19.57,1.45-.2,3.43-.45.68-.09.73.04,1.63-.14.34-.69.24-.98-.09-1.71,3.49-.79,4.65-.86,1.55-2.68-3.58-2.1-10.85-9.14-12.68-11.66.75-.34.72-.15,1.44-.6l-.36-1.44c6.76-.99,1.58-2.15-.5-4l-5.27-4.61c-.67-.62-.9-1.12-1.5-1.68l-3.12-3.25c2.11-1.21.92-.51,2.65-.81,1.79-.31,1.12-1,.64-1.89,1.89-.08,2.79-.33,3.5-1.25l-6.1-4.5c-1.88-1.56-3.46-3.26-5.06-4.97,2.83.09,3-.15,2.1-1.92,1.7-.03,2.55-.36,3.42-.82-.03-.93-3.28-2.68-5.74-5.19-2.55-2.6-5.4-6.58-7.75-10.27,7.19-14.29,21.4-24.43,38.11-25.9-.74,6.06-.87,11.59-.66,17.3.05,3.46,3.23,4.23,3.06-.54-.61-5.68.23-11.3,1.11-16.94.23,0,.45,0,.68,0,1,0,1.98.03,2.96.1.75,5.62.69,11.24.55,16.86-.06,5.47,3.52,3.55,3.33-.18.32-5.38.25-10.88-.53-16.35,8.04,1.07,15.44,4.17,21.68,8.75l-.98.92c-.27.26-1.66,1.58-1.74,1.6-.11.03-4.21-.9-4.92-1.05-.32-.07-.48-.11-.75-.03-.18.06-.3.13-.43.27l-.11.12s-.01.01-.02.02l-.15.39s0,.02,0,.02c.04.24-.03.24.1.54.06.14.15.36.21.48l1.83,3.88c.06.13.23.35.15.52l-1.64,2.8c-.22.38-.45.76-.67,1.13-.22.37-.51.78-.43,1.21.06.33.3.7.79.81.25.06.87-.05,1.14-.09.75-.1,1.51-.2,2.23-.28.26-.03,2.11-.3,2.2-.25l3,3.35c.2.22.55.67.83.8.43.2.84.08,1.1-.17.3-.28.37-.82.43-1.22.06-.4.16-.85.24-1.26.17-.87.35-1.72.5-2.59.02-.11.09-.57.14-.64.05-.06,2.09-.95,2.44-1.09l1.97-.86c.94-.43.45-.23.89-.59l.13-.34c-.03-.16-.01-.31-.04-.46,6.8,8.19,10.89,18.72,10.89,30.2,0,1.27-.05,2.54-.15,3.78-1.26-.5-3.54-1.4-3.58-1.46l-.33-1.45c-.11-.49-.23-.95-.32-1.44-.09-.49-.22-.98-.32-1.46-.11-.49-.17-1-.79-1.15-.63-.15-.91.27-1.25.68l-1.42,1.71c-.22.27-1.36,1.65-1.44,1.68-.1.04-4.01-.36-4.67-.42-.3-.03-.46-.05-.7.06-.16.07-.26.15-.37.3l-.09.12s-.01.01-.02.02l-.09.38s0,.02,0,.02c.06.22,0,.23.16.49.07.13.18.32.25.42l2.14,3.39c.07.11.25.3.19.47l-1.2,2.78c-.16.37-.33.75-.49,1.13-.16.37-.38.78-.26,1.17.09.3.35.61.83.66.24.02.8-.15,1.04-.21.69-.18,1.38-.36,2.04-.51.23-.05,1.92-.51,2.01-.48l3.15,2.77c.21.19.59.56.86.65.42.13.79-.02,1-.28.25-.3.25-.8.26-1.18.01-.38.05-.8.08-1.2.05-.83.13-1.64.17-2.45,0-.11.02-.54.06-.61.04-.06,1.83-1.11,2.14-1.29l.65-.39c-1.05,7.38-3.79,14.2-7.83,20.07-.05-.25-.16-.49-.82-.77-.5-.21-4.77-1.88-4.84-1.96l-.37-1.6c-.12-.54-.26-1.05-.36-1.59-.1-.54-.24-1.09-.36-1.62-.12-.55-.19-1.11-.88-1.28-.7-.17-1.01.3-1.38.75l-1.58,1.89c-.25.3-1.51,1.83-1.59,1.87-.11.05-4.44-.4-5.18-.47-.33-.03-.51-.05-.78.07-.18.08-.29.17-.41.33l-.1.13s-.01.01-.02.02l-.1.42s0,.02,0,.02c.07.24,0,.25.17.54.08.14.2.35.28.47l2.37,3.76c.08.13.28.33.22.52l-1.34,3.08c-.18.42-.36.83-.54,1.25-.18.41-.42.86-.29,1.29.1.33.39.68.91.73.26.03.89-.16,1.16-.23.76-.2,1.53-.4,2.26-.57.26-.06,2.13-.57,2.23-.53l3.05,2.68c-8.27,7.07-19.01,11.35-30.74,11.35-7.03,0-13.71-1.54-19.71-4.29h0Zm57.61-14.7c-1.29,1.73-2.7,3.36-4.21,4.89.05-.61.09-1.21.12-1.81,0-.12.02-.6.07-.68.04-.07,2.03-1.23,2.37-1.43l1.65-.97Zm-1.98-59.14c-.05-.03-.11-.07-.17-.11-.45-.26-4.36-2.36-4.41-2.45l-.17-1.58c-.02-.25-.05-.5-.08-.74,1.73,1.51,3.34,3.14,4.83,4.88ZM53.02,18.61c.35-4.94-.47-12.36-4.21-15.28-.88-.89-13.17,3.72-9.18,9.76,6.34-2.32,10.74,3.82,13.39,5.51h0Zm6.89,1.42c-.35-4.94.47-12.36,4.21-15.28.88-.89,13.17,3.72,9.18,9.76-6.34-2.32-10.74,3.82-13.39,5.51h0Zm-20.73-3.15c-6.51,3.76-8.97,10.05-4.68,12.78,5.43-2.79,9.87-3.1,14.67-3.78,1.09-.1,1.39-.46.9-.9-3.63-1.84-7.39-3.55-10.89-8.1Zm40.17,13.4c3.72-6.54-.82-9.9-5.12-12.37-3.28,5.15-4.79,3.41-8.17,7.19-.89.63-.96,1.1-.32,1.23,4.06-.24,8.3,1.79,13.61,3.95h0Zm-32.53-12.51c1.74,1.37,3,2.68,2.8,2.93-.2.25-1.77-.65-3.51-2.02-1.74-1.37-3-2.68-2.8-2.93.2-.25,1.77.65,3.51,2.02h0Zm19.4,1.31c-1.74,1.37-3,2.68-2.8,2.93.2.25,1.77-.65,3.51-2.02,1.74-1.37,3-2.68,2.8-2.93-.2-.25-1.77.65-3.51,2.02h0Zm13.19,87.63l-.07.27s0,.01,0,.02c.05.16,0,.16.11.35.05.09.13.22.18.3l1.51,2.4c.05.08.18.21.14.33l-.85,1.97c-.12.27-.23.53-.35.8-.11.26-.27.55-.19.83.06.21.25.43.58.47.17.02.57-.1.74-.15.49-.12.98-.25,1.44-.36.17-.04,1.36-.36,1.42-.34l2.23,1.96c.15.13.42.4.61.46.3.09.56-.01.71-.2.18-.21.18-.57.19-.84,0-.27.04-.57.06-.85.04-.59.09-1.16.12-1.74,0-.08.01-.38.04-.43.03-.05,1.29-.79,1.51-.91l1.22-.72c.58-.35.28-.19.54-.46l.06-.23c-.08-.24.04-.45-.57-.71-.32-.13-3.05-1.2-3.09-1.25l-.24-1.02c-.08-.35-.16-.67-.23-1.02-.07-.34-.15-.7-.23-1.03-.08-.35-.12-.71-.56-.82-.45-.11-.65.19-.88.48l-1.01,1.21c-.16.19-.96,1.17-1.02,1.19-.07.03-2.84-.26-3.31-.3-.21-.02-.33-.03-.5.04-.12.05-.19.11-.26.21l-.07.09s0,0-.01.01h0Zm11.17-21.74l-.06.24s0,.01,0,.01c.04.14,0,.14.1.31.05.08.12.2.16.27l1.37,2.17c.04.07.16.19.12.3l-.77,1.78c-.1.24-.21.48-.31.72-.1.24-.24.5-.17.74.06.19.23.39.53.42.15.02.51-.09.67-.13.44-.11.88-.23,1.3-.33.15-.03,1.23-.33,1.29-.31l2.02,1.77c.13.12.38.36.55.41.27.08.5-.01.64-.18.16-.19.16-.51.17-.76,0-.24.03-.51.05-.76.03-.53.08-1.05.11-1.57,0-.07,0-.34.04-.39.03-.04,1.17-.71,1.37-.82l1.1-.65c.53-.32.25-.17.48-.41l.05-.21c-.07-.22.04-.41-.51-.64-.29-.12-2.75-1.08-2.79-1.13l-.21-.92c-.07-.31-.15-.61-.21-.92-.06-.31-.14-.63-.21-.93-.07-.32-.11-.64-.51-.74-.4-.1-.58.17-.8.43l-.91,1.09c-.14.17-.87,1.05-.92,1.08-.06.03-2.56-.23-2.99-.27-.19-.02-.29-.03-.45.04-.1.05-.17.1-.24.19l-.06.08s0,0-.01.01h0Z"/>
  </g>
</svg>