<?xml version="1.0" encoding="UTF-8"?>
<svg id="Capa_2" data-name="Capa 2" xmlns="http://www.w3.org/2000/svg" viewBox="0 0 111.38 130.59">
  <defs>
    <style>
      .cls-1 {
        fill: none;
        stroke: #1d1d1b;
      }
    </style>
  </defs>
  <g id="svg108">
    <path id="path102" class="cls-1" d="m98.2,39.7c7.92,9.55,12.68,21.82,12.68,35.2,0,30.48-24.71,55.19-55.19,55.19S.5,105.37.5,74.89c0-13.56,4.89-25.97,13-35.57-1.44-3.97-2.36-7.83-2.76-11.57-.42-4.4,2.49-7.51,8.73-9.33.78-10.35,4.07-15.67,9.88-15.96,6.27.51,12.51,3.73,18.72,9.65,4.85-4.61,12.33-5,17.63-.92C74.21,3.51,80.73-.03,85.27.56c5.57,1.86,8.54,8.08,8.9,18.66,2.99-1.62,5-1.32,6.03.92,1.16,3.86.17,12.96-2,19.55h0Zm-23.62,9.78l-.66.11-1.04.18-.11.09.12.59.32,1.86.09.48.34-.04,2.14-.36.86-.16h.24s1.98,2.33,1.98,2.33l-.83.13-1.28.26-.04.47.25,1.42.08.31-.33-.1-1.81-.67-.76-.3h-.14s.16.92.16.92l.1.79-.51.43-.77.65.03.1.63.22,1.91.71.43.14-.18.15-1.06.9-.45.44,1.42,1.69-.31.08-.86.16-1.76.29-.2-.02-.49-.59-1.45-1.72-.31-.37-.26.22-1.43,1.2-.55.46-.08.13.62.73.52.62-.86.16-1.17.17-.08.13.11.66.32,1.86.38.37,1.31-.23.52-.06-.59,1.68,1.22.41,1.55.57.18-.09.23-.76.79-2.11.55-.46,1.9-.35.66-.11.06.07-.44,1.19-.28.86.89.31,1.16.4-.04.1-.59.49-1.54,1.3-.03.34,1.02.39.42.21.3,1.62,1.1-.93,1.32-1.11.19.59.22,1.38.39.17,1.38-.22.47.04-.56,1.49-.06.16-.31.82-.1.33-.55.09-1.04.18-1.86.32-.05.17.11.72.32,1.86.35.27,1.11-.25.37.07-.31.9h-45.61l.13-.09-.41-.57-.83-1.11-.66-.9v-.13s1.21-.14,1.21-.14l.23-.03-.05-.59-.17-1.53-.36.02-1.11.13-1.06.11h-.31s-.6-.84-.6-.84l-.14-.19-.21-.31.65-.07,2.78-.33.19-.14-.11-.75-.1-.88-.02-.36-1.2.14-2.08.24-1.47.15-.21-.13-.78-1.04-.16-.64-.15-1.08.61.22,1.44.63,1.29.56.33.15,1.02-.13.29-.05-.21-.22-.6-.84-.35-.2-1.33-.58-1.48-.64-.44-.19.87-.68.62-.3,1.29-.14.26.11.97,1.3,1.21,1.67.64.85.33-.25.71-.53.59-.45-.07-.25-1.67-2.31-.33-.45.41-.04,1.24-.12.25.24.62.89.68.87.17.21,1.29-.93.4-.31-.12-.23-.74-.94.14-.12,1.17-.15,1.38-.14.59-.05-.17-1.44-.07-.65-.34-.02-2.59.28-.41.04.19-.44.44-1-.3-.13-.81-.35-.7-.31-.2.05-.86,1.96-.23.52-.36.02-1.26.16.02-.25.55-1.26.6-1.37.21-.48-1.37-.6-.55-.24-.07.06-.23.52-1.53,3.51-.23.43-.54.03-1.08.15-.89-.39-.52-.23.17-.19,2.42-1.81.52-.39.13-.3.4-.92-.68.05-.75.11-.94.74-1.34.96-.78.58-.03-.23-.16-1.26.25-.68.4-.92,1.11-.13,2.05-.25,1.56-.15.13-.21-.2-1.67-.05-.29-1.06.11-1.53.17-.99.14.06-.24.27-.63.41-.74,2.12-.22.56-.07-.04-.41-.17-1.62-.13-.1-.56.07-.88.1.35-.81.58-1.33.39-.89-.24-.15-1.52-.66h-.22s-.42.95-.42.95l-.56,1.29-.32.74-.56-.73-.33-.45-.16-.03-1.32,1.01-.31.22.43.54,1.21,1.67-.26.81-.27.63-.14.12-.64-.85-.91-1.23-.58-.78-.26.19-1.36.99v.27s1.02,1.32,1.02,1.32l1.21,1.67.41.57.17.21-.42.96-.36.63-1.03.74-.18.1-.11-1.06-.2-1.67-.09-1.1-.47-.64-.37-.47-.42.96-.11.26.06.77.33,2.96-.06.15-.55-.24-.83-.41-.66-.9-.31-.4.23-.52,1.53-3.51.17-.5-.63-.27-1.29-.56-.3.58-.6,1.37-.52,1.18-.15.15-.74-1.03-.19-.26.26-.59.84-1.92-.15-.15-.78-.34-.78-.34-.24-.06-.45,1.04-.16.37-.31-.4-1.31-1.75c1.01-1.91,2.14-3.74,3.39-5.48.38.74.77,1.48,1.18,2.22,6.59-.86,12.56-3.7,20.68-11.59l1.57.19,2.4.29.78.16,1.58,2.06.46.55-.55-.07-1.29-.05-3.45-.29-1.47-.12-.81-.07v.11s.8.64.8.64l2.57,2.09,2.15,1.81.32.24-.28.04-2.68.39-.51-.05-1.58-1.16-2-1.54-.69-.49-.23-.2-.49.69-.87,1.12-.55.72.35.3,1.6,1.23-.25.11-1.66.22-1.73.25-.43.14.35,2.5.09.56,1.15-.11,1.85-.3,1.17-.16-.25.37-.69.93-.54.68.2.29,2.06,1.52h.37s1.23-1.61,1.23-1.61l1.5-2.02.52-.63.1-.12.95-.14,1.51-.23.89-.11-.17.3-.64.95-1.96,2.77-1.44,2.14-.07.18.74-.28,2.97-1.11,2.86-1.1.55-.2v.15s-1.01,2.48-1.01,2.48l-.26.52-1.58.67-2.34.99-1.33.56.24.57.56,1.33.4.95.33-.03,1.9-.81.1.14-.58,1.44-.67,1.67-.17.56,2.21.89.68.27.35-.86.69-1.71.51-1.26.15.27.43,1.01.38.89.29.06,2.34-.99.33-.29-.7-1.65-1.02-2.41-.35-.82-.13-.32.29-.72.58-1.44.38-.95.1.14.44.86,1.42,2.99,1.21,2.59.16.38.13-.58.46-2.96.55-3.19.11-.79.06-.03,1.63,2.07.41.53-.17,1.45-.3,2.55-.2,1.65.49.09,1.39.19,1.1.13.18-.19.25-2.05.14-.21.9,1.15,1.14,1.46.49.62.68-.51,1.09-.87.7-.56-.44-.6-2.04-2.61.14-.1,1.04.16,1.06.11.25-.11.32-2.49.02-.57-1.61-.18-2.56-.3-1.54-.2-.37-.52-.94-1.17-.73-.92.02-.04.77.05,6.21.47.66.06-.28-.22-2.13-1.75-2.59-2.15-.79-.64-.16-.12,1.01-.17,1.49-.18.84-.13.23.2.69.49,2.05,1.56,1.53,1.14.35-.22.79-1.04.73-1.02.05-.24-1.65-1.24-.26-.26,1.27-.17,1.88-.24,1.01-.17-.14-.69-.18-1.38-.17-1.01h-.52s-3.34.48-3.34.48l-.18-.07.59-.81.65-.84.13-.32-1.93-1.46-.56-.44-.24.32-.55.72-1.56,2.04-1.06,1.46-.52.11-1.45.2-1.27.17-.17.04.29-.46,3.54-5.12.49-.69h-.11s-.91.32-.91.32l-1.48.55-3.16,1.19-1.17.42-.36.12.31-.77.57-1.4.36-.9.14-.1.7-.3,2.33-.95,1.92-.85.15-.36-.48-1.14-.51-1.2-.2-.29-1.88.76-.44.19.42-1.04.69-1.71.22-.55c2.91.12,5.82.59,8.72,1.4,9.05,12.32,15.47,16.71,22.11,16.95l.59.7-.02.2-.3.76-.59,1.75-.12.23-.25-.29-.9-1.06-.42-.27-1.03.86-.59.49-.52-3.14-.47.33-.84.64-.4-.03-1.03-.33-.28.11.35,1.9.13.83v.24s-1.04-.36-1.04-.36l-1.02-.39-.3.69-.45,1.25-.08.13-.37-.44-1.24-1.47-.28-.7.75-2.01.28-.86.09-.26-2.87-1.03-.25.59-.33,1.03-.32-.23-.9-1.06-.47-.11-1.39,1.17-.59.49-.12.16.71.84.68.81Zm11.19,31.18l.43-.36.15-.19-1.08-1.28-1.2-1.43.05-.23.27-.73.5-1.42.13-.37.12-.23.25.29.25.3.64.76.42.27.99-.83.24-.2.35-.29.05.29.53,2.85.47-.33.77-.65h.44s.99.36.99.36l.28-.11-.28-1.89-.04-.22-.12-.64-.05-.21,1.06.36,1.09.4.27-.73.45-1.25.08-.13.37.44,1.24,1.47.1.3.15.44-.68,2.02-.34.85-.02.27,2.8,1.02.25-.59.36-.99.36.2.86,1.03.43.14,1.39-1.17.62-.52.12-.16-.71-.84-.65-.77.62-.15,1.04-.18.1-.03-.07-.55v-.07s-.36-1.9-.36-1.9l-.09-.48-.31.08-2.14.36-.93.16-.2-.02-1.98-2.35.83-.13,1.27-.2.05-.54-.26-1.35-.07-.38.3.13,1.88.67.73.27h.13s-.13-.88-.13-.88l-.1-.79.48-.47.73-.62v-.07s-.65-.26-.65-.26l-1.88-.67-.46-.18.18-.15,1.06-.9.48-.47-1.42-1.69.34-.04.86-.16.65-.12c1.18,4.16,1.82,8.55,1.82,13.08,0,1.95-.12,3.87-.35,5.76h-.08c-2.79,23.72-22.95,42.13-47.43,42.13-26.38,0-47.76-21.38-47.76-47.76,0,26.38,21.38,47.76,47.76,47.76,24.47,0,44.64-18.41,47.43-42.13h-17.19Zm14.85-21.81l-.7.11-.69.14-.06-.07.44-1.19.33-.81c.24.6.47,1.2.69,1.81h0Zm-.71-1.87l-.88-.33-1.16-.4.04-.1.59-.49.61-.52c.28.61.54,1.22.8,1.85h0Zm-2.2-4.67l-.49.41-1.36,1.14-.15-.62-.26-1.35-.36-.2-1.38.29-.44-.07.59-1.68.27-.79.13-.3.52-.13.88-.14c.73,1.12,1.41,2.26,2.05,3.44h0Zm-18.47,10.37h0l-.73-.2-.49-.59.15-.12.7-.59.3.06,1.19.44,1.19.44.16.12-2.45.44Zm1.1,4.21h0l-.7.21-.73-.27.05-.17.34-.85.28-.11,1.21-.2,1.24-.23.17.05-1.87,1.57Zm1.82,3.79h0l-.02-.17-.16-.93.22-.19.95-.8.95-.8.18-.09-.85,2.34-.52.5-.76.14Zm4.71,1.73h0l-.12-.15-.59-.7.1-.33.4-1.16.44-1.19.15-.12.41,2.41-.2.73-.59.49Zm4.77-.95h0l-.82-.31-.11-.28-.2-1.27-.23-1.24.05-.17,1.61,1.91.18.73-.27.73-.2-.08Zm3.4-4.44h0l.5.52.14.76-.17.02-.89.13-.22-.19-.8-.95-.83-.99-.06-.14,2.34.85Zm1.14-4.22h0l.7.16.49.59-.15.12-.7.59-.3-.06-1.19-.44-1.16-.4-.12-.15,2.41-.41Zm-.44-4.46h0l.76.24-.08.2-.28.86-.31.08-1.24.23-1.21.2-.2-.02,1.9-1.61.66-.18Zm-2.48-3.61h0l.02.17.16.93-.19.22-.99.83-.95.8-.17.02.85-2.34.52-.5.76-.14Zm-5.6,4.66h0l.46-1.39.21-.12.46.55.76.3.72-.11.12.15-.88,2.37.69-.08,1.52-.28.52-.06-.22.63-.04.85.67.87-2.55.39.07.38.96,1.14.59.7-.45.06-.94.29-.4,1.16-.52-.62-.99-1.17-.36-.2-.48,1.28-.4,1.16-.19-.22-.72-.78-1.27.2.14-.43.49-1.42.23-.76-1.07.21-1.42.25-.16-.12.4-1.16-.06-.07-.46-.55-.34-.4.69-.14,1.55-.24.39-.2-1.67-1.98.21-.12.76-.14.53-.63.22-.63.35.27.99,1.17.52.62.36-.99Zm.85-6.35h0l.12.15.59.7-.06.3-.44,1.19-.4,1.16-.12.16-.44-2.45.16-.7.59-.49Zm-4.77.95h0l.89.31.08.31.2,1.21.23,1.24-.05.17-1.61-1.91-.18-.66.27-.73.17.05Zm-3.83,3.11h0l.89-.13.22.19.83.99.8.95.02.17-2.27-.84-.54-.49-.14-.76.18-.09Zm-23.42-28.1l-.68,1.69-.24.32-.35-.82-.41-1.06h0c.56-.06,1.12-.1,1.69-.13h0Zm-3.23.31l-.74.31-.82.35.08.19.32.76.99,2.34.78,1.84-.05.51-.53,1.31-.49,1.22-.11.27-.15-.27-1.2-2.48-1.44-3.05-.47-.92-.1-.14-.14.73-.21,1.43-.58,3.38-.22,1.33-.1.64-.41-.53-.94-1.17-.68-.91.03-.72.55-4.6-.05-.28c2.24-.71,4.47-1.22,6.7-1.53h0Zm.73,18.22h0l-1.22.03-.21.39-.38,1.32-.22.8-.45-.71-.73-1.19-.31-.28-1.16.27-1.16.27.08-.33.65-1.21.4-.73-.61-.56-.95-1.02-.15-.27,1.17-.05,1.17-.05.27-.41.38-1.32.2-.76.45.71.75,1.14.29.33,1.18-.31,1.16-.27-.08.33-.65,1.21-.4.73.59.61.93.95.18.33-1.17.05Zm-33.51,33.15l.15-.13-.37-.56-1.26-1.65.32-.83.26-.59.12-.17.62.89.95,1.25.55.77.3-.18,1.32-1.01v-.27s-.98-1.3-.98-1.3l-1.21-1.67-.17-.23-.27-.36-.14-.19.44-1,.36-.63.97-.72.18-.1.15,1.08.16,1.65.03.28.1.84.43.63.4.48.42-.96.11-.26-.05-.73v-.05s-.34-2.96-.34-2.96l.06-.15.52.23.85.37.7.92.27.38-.21.57-.3.69-1.23,2.83-.17.5.59.26,1.33.58.26-.59.6-1.37.53-1.22.14-.12.78,1.04.19.26-.26.59-.84,1.92.15.15.74.32.78.34.27.08.45-1.04.16-.37.31.4.82,1.11h-11.04Zm-8.05-25.9l.19.27.66.9-.05.11-1.2.14-.23.03.07.56.17,1.53.34.02,1.11-.13,1.06-.11h.31s.76.99.76.99l.25.33-.7.09-2.77.29-.17.19.07.74.1.88.06.38,1.2-.14,2.08-.24,1.47-.15.22.1.76,1.08.2.66.11,1.06-.55-.24-1.48-.65-1.33-.58-.31-.09-1.02.13h-.27s.19.27.19.27l.6.84.33.15,1.37.6,1.4.61.46.25-.9.66-.58.32-1.29.14-.24-.15-.95-1.25-1.21-1.67-.64-.85-.37.24-.71.53-.59.45.1.27,1.65,2.26.35.51-.45.02-1.2.14-.23-.28-.68-.87-.62-.89-.23-.19-.12.09c.76-3.61,1.92-7.06,3.44-10.32Zm-4.17,14.93l.35-.03-.19.44-.26.59c.03-.34.06-.67.1-1h0Zm-.13,1.44l.16.09.78.34.74.32.2-.05.86-1.96.23-.52.38-.06,1.26-.16-.08.27-.55,1.26-.6,1.37-.17.5,1.37.6.55.24.09-.1.21-.48,1.53-3.51.23-.43.5-.04,1.11-.13.89.39.48.21-.13.21-2.42,1.81-.52.39-.13.3-.4.92.65-.07.75-.11.97-.72,1.36-.99.78-.58v.27s.15,1.2.15,1.2l-.23.73-.4.92-1.11.13-2.08.24-1.53.17-.13.21.06.66.09.99.09.3,1.02-.13,1.58-.19.97-.1-.06.24-.27.63-.43.69-2.08.24-.61.09.08.43.17,1.62.09.09.61-.09.86-.06-.35.81-.06.14h-7.28c-.22-1.87-.34-3.76-.35-5.69v-.07c0-1.27.05-2.52.15-3.76h0Zm14.94-7.28h0l-.02-.36.57-.41.78-.58.4-.31.07.34.16,1.74-.15.24-.71.53-.71.53h-.18s-.22-1.71-.22-1.71Zm-2.79,1.25h0l-.33-.15-.07-.65-.09-1.01-.1-.48.33.15,1.59.69.08.21.1.88.1.88-.03.16-1.59-.69Zm4.84,2.11h0l-.81-.35-.12-.14,1.41-1.01.26-.19.63.27.89.39.44.19-.26.19-1.41,1.01-.25-.02-.78-.34Zm-.55,1.26h0l.81.35.19.17.16,1.74.04.32-.59-.26-.92-.4-.44-.19-.07-.34-.16-1.74h.18s.81.35.81.35Zm-5.56-.36h0l-.89-.39-.48-.21.26-.19,1.43-1.05.25.02.81.35.81.35.12.14-1.43,1.05-.3.18-.59-.26Zm1.65,3.18h0l-.18-1.71.13-.21.71-.53.71-.53h.18s.18,1.7.18,1.7l.02.36-.52.39-.78.58-.44.29-.02-.36ZM56.96,10.93c-2.16,0-3.9,1.75-3.9,3.9s1.75,3.9,3.9,3.9,3.9-1.75,3.9-3.9-1.75-3.9-3.9-3.9Zm-10.31,14.61c-8.29,5.71-16.09,9.49-23.4,11.34-1.4.14-1.74-.57-1.03-2.12,4.9-7.42,12.59-10.9,23.08-10.45,1.53.04,1.98.46,1.35,1.23Zm34.6-11.17c-5.1.06-9.73,1.22-13.87,3.47-.38.07-.76-.1-.97-.43-.2-.33-.18-.75.05-1.06,6.07-4.37,10.9-6.15,14.47-5.34.97,1.03,1.07,2.15.32,3.36h0Zm-49.53.7c5.1.05,9.73.96,13.87,2.73.38.05.77-.08.97-.34.2-.26.18-.59-.05-.83-6.07-3.43-10.9-4.83-14.47-4.2-.97.81-1.07,1.69-.32,2.64h0Zm-12.77,8.43c.47,5.05.85,9.69,1.12,13.92-.22,1.2-.9,1.44-2.04.72-1.35-.79-1.66-5.59-.92-14.41.77-.84,1.39-.91,1.84-.23Zm75.14-2.09c-.99,4.97-1.84,9.55-2.55,13.73.09,1.21.74,1.52,1.95.92,1.43-.64,2.23-5.39,2.4-14.24-.68-.91-1.28-1.05-1.8-.42Zm-29.02,2.96c8.29,5.71,16.09,9.49,23.4,11.34,1.4.14,1.75-.57,1.03-2.12-4.9-7.42-12.59-10.9-23.08-10.45-1.53.05-1.98.46-1.35,1.23h0Z"/>
  </g>
</svg>