<?xml version="1.0" encoding="UTF-8"?>
<svg id="Capa_2" data-name="Capa 2" xmlns="http://www.w3.org/2000/svg" viewBox="0 0 111.38 133.19">
  <defs>
    <style>
      .cls-1 {
        fill: none;
        stroke: #1d1d1b;
      }
    </style>
  </defs>
  <g id="svg108">
    <path id="path104" class="cls-1" d="m109.99,87.37c2.18-10.9.3-25.01-4.82-34.69-2.19-4.14-4.25-6.75-5.11-8.38-1.17-1.59-3.1-3.32-3.65-4.75-.6-.4-.48-.32-1.07-.84l-11.93-9.31c-2.71-1.06-5.61-2.76-8.78-4.03-6.62-2.65-9.82-1.29-10.21-3.86-.61-3.94-.33-3.34-3.79-6.35,1.85-2.13,4.31-5.12,2.55-9.59-2.8-7.13-12.91-6.51-15.26.34-1.68,4.89,1,6.91,2.67,9.25-.21.18-.44.36-.66.53-.34.27-.7.52-1.02.81-2.43,2.22-1.67,4.04-2.28,6.25-10.35,1.53-20.74,7.01-26.71,12.3-25.82,22.87-26.48,64.21,1.54,85.71,14.56,11.17,35.19,15.5,52.7,8.63,5.53-2.17,8.44-3.67,12.91-6.61,5.87-3.86,10.74-9.15,14.61-14.83,3.71-5.44,7.3-13.8,8.31-20.59ZM18.39,50.05c2.43,2.77,5.34,5.15,8.51,7.09l8.01,3.84c9.58,3.44,19.64,3.27,24.96-1.33,3.01-2.6-.61-7.2-3.07-7.13-12.09.35-3.52,3.17-2.8,5.99-9.21,2.9-15.58.35-20.39-5.17,6.6,0,13.86-.13,20.85-2.61,8.18-2.9,13.16-4.17,21.89-4.43,2.77-.08,8.68.75,8.81,4.28.22,6.2-1.47,5.85-6.34,5.47-5.2-.41-4.84-6.2-9.51-4.34-1.84.73-3.8,2.82-4.11,4.93.14,3.61,3.64,6.34,11.05,8.04,9.24,1.32,15.4-3.04,19.67-10.91,9.88,14.61,4.1,43.19-.57,47.81-22.92,4.34-43.13,1.45-61.45-6.46-6.44-1.45-13.17,2.95-16.8,8.04-9.08-16.05-9.46-38.81,1.29-53.12h0Zm65.11,64.43c-13.2,9.57-28.1,11.87-44.94,5.74,9.23-3.04,11.02-7.11,6.46-12.06-5.48-2.37-6.51,2.87-9.76,4.31-5.98,1.67-8.71-.47-8.18-6.46,3.38-5.61,11.08-5.83,22.11-1.87,9.62,3.62,19.43,5.57,29.43,5.74-4.79,4.76-11.53,6.34-19.96,5.17-2.46-2.99,4.63-2.77,3.28-5.18-.96-1.72-6.83-2.36-8.3-1.14-.24.2-2.83,2.04-2.69,3.77-.15,6.73,14.66,11.11,32.55,1.97h0ZM29.28,39.05l-5.74,4.88c2.18,1.17,5.21,1.92,9.69,1.94,2.71-.16,4.3-1.64,4.81-4.38-.42-1.95-4.35-1.07-5.74.54-2.1.24-3.01-1.47-3.02-2.98h0Zm7.05-3.64c.34.02,5.97,3.3,6.32,4.59.14.51.86,2.05.86,3.02,0,3.54-2.23,5.07-2.23,5.1,8.4.02,16.03-1.39,22.9-4.24,6.32-3.04,12.32-4.84,17.87-4.81-13.59-8.21-28.11-12.51-45.73-3.66ZM54,4.45c-5.67,2.4-2.28,10.5,3.29,8.39,5.26-1.99,2.45-10.82-3.29-8.39Z"/>
  </g>
</svg>